<?xml version="1.0" encoding="utf-8"?>
<!-- Generator: Adobe Illustrator 16.0.4, SVG Export Plug-In . SVG Version: 6.00 Build 0)  -->
<!DOCTYPE svg PUBLIC "-//W3C//DTD SVG 1.1//EN" "http://www.w3.org/Graphics/SVG/1.1/DTD/svg11.dtd">
<svg version="1.1" id="Layer_1" xmlns="http://www.w3.org/2000/svg" xmlns:xlink="http://www.w3.org/1999/xlink" x="0px" y="0px"
	 width="100px" height="100px" viewBox="0 0 100 100" enable-background="new 0 0 100 100" xml:space="preserve">
<g>
	<path fill="#FFFFFF" d="M89.307,29.652L79.083,19.429c-0.002-0.002-0.003-0.004-0.004-0.006c-0.002-0.001-0.005-0.003-0.006-0.005
		L68.851,9.195c-0.552-0.552-1.3-0.861-2.079-0.861c-0.781,0-1.528,0.31-2.08,0.861L15.184,58.701
		c-0.406,0.407-0.684,0.923-0.801,1.485L9.06,85.967c-0.2,0.969,0.102,1.975,0.801,2.674c0.557,0.557,1.308,0.861,2.08,0.861
		c0.198,0,0.397-0.021,0.594-0.062l25.779-5.321c0.563-0.117,1.079-0.395,1.485-0.802l49.508-49.507
		C90.455,32.663,90.455,30.801,89.307,29.652z M19.04,66.718l12.743,12.743l-16.059,3.316L19.04,66.718z M37.719,77.079
		L21.421,60.781l45.35-45.347l6.067,6.069l-27.44,27.441c-1.148,1.149-1.148,3.011,0,4.159c0.574,0.574,1.327,0.861,2.08,0.861
		s1.505-0.287,2.08-0.861l27.441-27.442l6.069,6.07L37.719,77.079z"/>
</g>
</svg>
