<?xml version="1.0" encoding="utf-8"?>
<!-- Generator: Adobe Illustrator 16.0.4, SVG Export Plug-In . SVG Version: 6.00 Build 0)  -->
<!DOCTYPE svg PUBLIC "-//W3C//DTD SVG 1.1//EN" "http://www.w3.org/Graphics/SVG/1.1/DTD/svg11.dtd">
<svg version="1.1" id="Layer_1" xmlns="http://www.w3.org/2000/svg" xmlns:xlink="http://www.w3.org/1999/xlink" x="0px" y="0px"
	 width="100px" height="100px" viewBox="0 0 100 100" enable-background="new 0 0 100 100" xml:space="preserve">
<g>
	<g>
		<path fill="#FFFFFF" d="M6.261,87.068h87.271c2.763,0,5.01-2.247,5.01-5.01V16.501c0-2.762-2.247-5.011-5.01-5.011H6.261
			c-2.762,0-5.011,2.249-5.011,5.011v65.557C1.25,84.821,3.499,87.068,6.261,87.068z M4.59,16.501c0-0.92,0.75-1.67,1.67-1.67
			h87.271c0.919,0,1.669,0.75,1.669,1.67v65.557c0,0.919-0.75,1.67-1.669,1.67H6.261c-0.92,0-1.67-0.751-1.67-1.67V16.501z"/>
		<path fill="#FFFFFF" d="M12.941,81.223h10.452c0.056,0.005,0.106,0.032,0.161,0.032h7.065c0.058,0,0.104-0.027,0.157-0.032h7.83
			c0.056,0.005,0.106,0.032,0.162,0.032H60.77c0.054,0,0.105-0.027,0.156-0.032h7.83c0.055,0.005,0.104,0.032,0.162,0.032h7.064
			c0.057,0,0.102-0.027,0.156-0.032h10.71c2.761,0,5.011-2.248,5.011-5.011v-42.59c0-2.763-2.25-5.011-5.011-5.011H12.939
			c-2.762,0-5.011,2.249-5.011,5.011v42.59C7.93,78.975,10.179,81.223,12.941,81.223z M24.772,72.64l-2.74-1.185
			c-0.262-0.109-0.463-0.318-0.568-0.585c-0.104-0.266-0.101-0.554,0.012-0.813l1.948-4.516c0.226-0.521,0.86-0.788,1.402-0.554
			l2.736,1.181c0.731,0.315,1.582,0.071,2.035-0.584c1.821-2.628,4.097-4.841,6.763-6.577c0.668-0.433,0.937-1.275,0.644-2.015
			l-1.1-2.767c-0.105-0.266-0.099-0.556,0.011-0.816c0.114-0.265,0.321-0.466,0.587-0.572l4.566-1.812
			c0.546-0.219,1.172,0.063,1.385,0.597l1.104,2.778c0.294,0.738,1.066,1.168,1.85,1.024c3.128-0.563,6.351-0.521,9.429,0.131
			c0.776,0.174,1.562-0.245,1.879-0.971l1.182-2.74c0.227-0.523,0.865-0.788,1.4-0.559l4.515,1.948
			c0.259,0.113,0.461,0.318,0.565,0.586c0.106,0.268,0.104,0.556-0.009,0.817l-1.183,2.739c-0.313,0.73-0.07,1.579,0.583,2.035
			c2.609,1.803,4.816,4.079,6.564,6.768c0.434,0.662,1.276,0.937,2.018,0.641l2.777-1.104c0.546-0.217,1.175,0.063,1.387,0.595
			l1.814,4.569c0.104,0.263,0.103,0.553-0.014,0.813c-0.108,0.263-0.317,0.464-0.586,0.57l-2.767,1.099
			c-0.738,0.294-1.167,1.069-1.024,1.847c0.154,0.857,0.259,1.753,0.317,2.669h-3.737c-0.165-2.061-0.627-4.074-1.393-5.986
			c-3.174-7.986-10.774-13.146-19.364-13.146c-2.632,0-5.218,0.497-7.685,1.477c-7.443,2.957-12.425,9.776-13.058,17.656h-3.736
			c0.077-1.15,0.23-2.279,0.459-3.366C25.908,73.738,25.502,72.953,24.772,72.64z M40.594,77.883
			c0.572-3.131,2.692-5.769,5.727-6.976c1.108-0.439,2.264-0.661,3.443-0.661c3.853,0,7.259,2.312,8.682,5.891
			c0.223,0.565,0.387,1.151,0.497,1.747L40.594,77.883L40.594,77.883z M11.271,33.622c0-0.921,0.751-1.671,1.67-1.671H86.85
			c0.92,0,1.67,0.75,1.67,1.671v42.59c0,0.921-0.75,1.671-1.67,1.671h-9.249c-0.036-0.647-0.088-1.282-0.169-1.903l1.53-0.608
			c1.096-0.434,1.954-1.271,2.421-2.351c0.465-1.078,0.483-2.28,0.046-3.372l-1.812-4.566c-0.667-1.691-2.275-2.78-4.096-2.78
			c-0.559,0-1.106,0.104-1.627,0.312l-1.541,0.611c-1.582-2.191-3.448-4.115-5.574-5.749l0.653-1.513
			c0.464-1.079,0.486-2.276,0.047-3.376c-0.435-1.093-1.27-1.954-2.347-2.416l-4.514-1.95c-0.557-0.238-1.144-0.361-1.742-0.361
			c-1.765,0-3.353,1.043-4.051,2.662l-0.653,1.514c-2.635-0.421-5.335-0.456-8.005-0.108l-0.614-1.539
			c-0.67-1.69-2.278-2.783-4.096-2.783c-0.558,0-1.105,0.105-1.625,0.312l-4.567,1.814c-1.094,0.434-1.953,1.269-2.42,2.354
			c-0.465,1.079-0.484,2.277-0.047,3.375l0.605,1.526c-2.178,1.572-4.104,3.444-5.745,5.588l-1.512-0.654
			c-2.181-0.945-4.858,0.13-5.792,2.299l-1.947,4.512c-0.466,1.082-0.484,2.279-0.048,3.378c0.435,1.093,1.27,1.952,2.349,2.418
			l1.517,0.654c-0.138,0.881-0.22,1.79-0.276,2.703h-9.007c-0.918,0-1.67-0.75-1.67-1.669L11.271,33.622L11.271,33.622z"/>
		<path fill="#FFFFFF" d="M59.291,23.391h30.898c0.922,0,1.672-0.749,1.672-1.671c0-0.921-0.75-1.669-1.672-1.669H59.291
			c-0.921,0-1.671,0.748-1.671,1.669C57.62,22.643,58.37,23.391,59.291,23.391z"/>
		<path fill="#FFFFFF" d="M24.216,23.391h5.219c0.922,0,1.669-0.749,1.669-1.671c0-0.921-0.748-1.669-1.669-1.669h-5.219
			c-0.922,0-1.67,0.748-1.67,1.669C22.546,22.643,23.294,23.391,24.216,23.391z"/>
		<path fill="#FFFFFF" d="M10.853,23.391h5.221c0.922,0,1.669-0.749,1.669-1.671c0-0.921-0.748-1.669-1.669-1.669h-5.221
			c-0.92,0-1.669,0.748-1.669,1.669C9.184,22.643,9.933,23.391,10.853,23.391z"/>
	</g>
</g>
</svg>
