<?xml version="1.0" encoding="utf-8"?>
<!-- Generator: Adobe Illustrator 16.0.4, SVG Export Plug-In . SVG Version: 6.00 Build 0)  -->
<!DOCTYPE svg PUBLIC "-//W3C//DTD SVG 1.1//EN" "http://www.w3.org/Graphics/SVG/1.1/DTD/svg11.dtd">
<svg version="1.1" id="Layer_1" xmlns="http://www.w3.org/2000/svg" xmlns:xlink="http://www.w3.org/1999/xlink" x="0px" y="0px"
	 width="100px" height="100px" viewBox="0 0 100 100" enable-background="new 0 0 100 100" xml:space="preserve">
<g>
	<g>
		<path fill="#FFFFFF" d="M60.98,84.296v-7.742c0.057-0.076,0.121-0.15,0.162-0.233c0.365-0.713,8.928-17.546,8.928-25.299
			c0-11.067-9.002-20.07-20.072-20.07c-11.068,0-20.073,9.003-20.073,20.07c0,6.498,7.164,20.646,9.132,24.41
			c-0.008,0.064-0.037,0.119-0.037,0.186v8.679c0,0.854,0.692,1.545,1.545,1.545h18.865C60.285,85.841,60.98,85.15,60.98,84.296z
			 M47.085,57.114h5.833v16.761c0,0.07,0.031,0.129,0.037,0.195h-5.913c0.008-0.066,0.039-0.125,0.039-0.195L47.085,57.114
			L47.085,57.114z M50.002,34.041c9.363,0,16.98,7.619,16.98,16.98c0,6.099-6.439,19.554-8.17,23.049h-2.842
			c0.006-0.066,0.039-0.125,0.039-0.195V57.114h1.582c0.855,0,1.545-0.69,1.545-1.545c0-0.855-0.689-1.547-1.545-1.547H56.01v-0.771
			c0-0.855-0.695-1.545-1.547-1.545c-0.854,0-1.545,0.689-1.545,1.545v0.771h-5.833v-0.771c0-0.855-0.693-1.545-1.545-1.545
			c-0.854,0-1.546,0.689-1.546,1.545v0.771h-2.062c-0.854,0-1.545,0.691-1.545,1.547c0,0.854,0.692,1.545,1.545,1.545h2.062v16.761
			c0,0.07,0.031,0.129,0.039,0.195h-2.197c-2.816-5.355-8.816-17.856-8.816-23.049C33.019,41.659,40.637,34.041,50.002,34.041z"/>
		<path fill="#FFFFFF" d="M45.54,87.777c-0.854,0-1.546,0.688-1.546,1.545c0,0.854,0.692,1.545,1.546,1.545h8.923
			c0.852,0,1.547-0.691,1.547-1.545c0-0.856-0.695-1.545-1.547-1.545H45.54z"/>
		<path fill="#FFFFFF" d="M51.545,19.664V8.813c0-0.855-0.692-1.545-1.543-1.545c-0.853,0-1.545,0.69-1.545,1.545v10.851
			c0,0.854,0.693,1.546,1.545,1.546C50.855,21.21,51.545,20.517,51.545,19.664z"/>
		<path fill="#FFFFFF" d="M76.297,32.1c0.396,0,0.791-0.151,1.094-0.453l7.672-7.674c0.604-0.604,0.604-1.581,0-2.185
			c-0.604-0.605-1.582-0.605-2.186,0l-7.672,7.673c-0.604,0.605-0.604,1.582,0,2.186C75.506,31.948,75.902,32.1,76.297,32.1z"/>
		<path fill="#FFFFFF" d="M70.838,11.857c-0.777-0.358-1.693-0.021-2.053,0.753l-4.561,9.846c-0.355,0.774-0.021,1.693,0.754,2.05
			c0.209,0.097,0.432,0.144,0.65,0.144c0.582,0,1.141-0.333,1.402-0.896l4.559-9.846C71.947,13.134,71.609,12.216,70.838,11.857z"/>
		<path fill="#FFFFFF" d="M31.885,10.697c-0.794,0.311-1.187,1.209-0.874,2.003l3.965,10.096c0.238,0.611,0.822,0.982,1.438,0.982
			c0.187,0,0.379-0.034,0.564-0.107c0.793-0.31,1.186-1.208,0.873-2.003l-3.963-10.097C33.575,10.779,32.676,10.388,31.885,10.697z"
			/>
		<path fill="#FFFFFF" d="M3.247,40.336c-0.285,0.805,0.138,1.687,0.943,1.97l10.232,3.617c0.17,0.059,0.345,0.089,0.515,0.089
			c0.637,0,1.233-0.396,1.458-1.031c0.285-0.805-0.138-1.687-0.943-1.971L5.219,39.395C4.417,39.11,3.533,39.531,3.247,40.336z"/>
		<path fill="#FFFFFF" d="M95.812,71.392l-10.234-3.614c-0.807-0.277-1.688,0.142-1.971,0.945c-0.285,0.804,0.139,1.688,0.941,1.97
			l10.234,3.613c0.17,0.057,0.344,0.089,0.514,0.089c0.637,0,1.234-0.398,1.457-1.033C97.039,72.558,96.613,71.674,95.812,71.392z"
			/>
		<path fill="#FFFFFF" d="M17.844,72.219c-0.37-0.77-1.294-1.1-2.062-0.729l-9.79,4.681c-0.77,0.365-1.096,1.291-0.728,2.061
			c0.266,0.553,0.819,0.875,1.396,0.875c0.224,0,0.451-0.045,0.666-0.15l9.79-4.682C17.886,73.913,18.212,72.988,17.844,72.219z"/>
		<path fill="#FFFFFF" d="M84.219,42.209l9.789-4.678c0.771-0.367,1.096-1.29,0.727-2.062c-0.367-0.77-1.287-1.095-2.057-0.728
			l-9.791,4.679c-0.77,0.368-1.096,1.29-0.729,2.061c0.266,0.554,0.82,0.877,1.395,0.877C83.777,42.362,84.002,42.311,84.219,42.209
			z"/>
		<path fill="#FFFFFF" d="M22.307,31.979c0.299,0.293,0.689,0.439,1.079,0.439c0.401,0,0.803-0.156,1.106-0.466
			c0.053-0.055,0.074-0.124,0.119-0.183c0.059-0.046,0.13-0.069,0.185-0.124c0.604-0.604,0.604-1.581,0-2.186l-7.67-7.673
			c-0.604-0.605-1.582-0.605-2.187,0c-0.075,0.076-0.114,0.17-0.171,0.258c-0.084,0.058-0.181,0.097-0.255,0.172
			c-0.596,0.612-0.584,1.589,0.028,2.186L22.307,31.979z"/>
		<path fill="#FFFFFF" d="M14.381,58.077c-0.031-0.855-0.77-1.576-1.598-1.492L1.94,56.96c-0.853,0.029-1.522,0.747-1.493,1.599
			c0.032,0.836,0.714,1.494,1.546,1.494c0.019,0,0.036,0,0.054-0.004l10.843-0.372C13.743,59.646,14.411,58.932,14.381,58.077z"/>
		<path fill="#FFFFFF" d="M97.955,53.65l-10.844,0.376c-0.854,0.028-1.521,0.742-1.49,1.596c0.029,0.836,0.715,1.492,1.545,1.492
			c0.018,0,0.033,0,0.051,0l10.844-0.376c0.855-0.032,1.521-0.742,1.492-1.598C99.525,54.286,98.807,53.573,97.955,53.65z"/>
	</g>
</g>
</svg>
