<?xml version="1.0" encoding="utf-8"?>
<!-- Generator: Adobe Illustrator 16.0.4, SVG Export Plug-In . SVG Version: 6.00 Build 0)  -->
<!DOCTYPE svg PUBLIC "-//W3C//DTD SVG 1.1//EN" "http://www.w3.org/Graphics/SVG/1.1/DTD/svg11.dtd">
<svg version="1.1" id="Layer_1" xmlns="http://www.w3.org/2000/svg" xmlns:xlink="http://www.w3.org/1999/xlink" x="0px" y="0px"
	 width="100px" height="100px" viewBox="0 0 100 100" enable-background="new 0 0 100 100" xml:space="preserve">
<g>
	<g>
		<path fill="#FFFFFF" d="M5.957,90.258h71.478c0.901,0,1.635-0.731,1.635-1.634V65.421h14.972c0.906,0,1.633-0.732,1.633-1.634
			V9.634C95.674,8.731,94.947,8,94.041,8H22.563C21.66,8,20.93,8.731,20.93,9.634v22.609c0,0.21,0.048,0.411,0.119,0.594H5.957
			c-0.904,0-1.634,0.733-1.634,1.634v54.152C4.323,89.529,5.053,90.258,5.957,90.258z M24.197,32.243V11.268h68.21v50.887H79.069
			V34.472c0-0.901-0.733-1.634-1.635-1.634H24.078C24.15,32.654,24.197,32.454,24.197,32.243z M7.59,36.105h68.21v50.884H7.59
			V36.105z"/>
		<path fill="#FFFFFF" d="M38.912,41.85H13.717c-0.904,0-1.634,0.733-1.634,1.634v25.193c0,0.902,0.73,1.634,1.634,1.634h25.195
			c0.903,0,1.634-0.731,1.634-1.634V43.483C40.545,42.583,39.814,41.85,38.912,41.85z M37.277,67.042H15.35V45.117h21.927V67.042z"
			/>
		<path fill="#FFFFFF" d="M70.897,58.03H45.705c-0.904,0-1.633,0.734-1.633,1.633v21.979c0,0.903,0.729,1.634,1.633,1.634h25.193
			c0.903,0,1.636-0.73,1.636-1.634V59.663C72.533,58.765,71.801,58.03,70.897,58.03z M69.266,80.008H47.339V61.3h21.926V80.008z"/>
		<path fill="#FFFFFF" d="M38.912,72.786H13.717c-0.904,0-1.634,0.73-1.634,1.634v5.794c0,0.903,0.73,1.635,1.634,1.635h25.195
			c0.903,0,1.634-0.731,1.634-1.635V74.42C40.545,73.517,39.814,72.786,38.912,72.786z M37.277,78.581H15.35v-2.522h21.927V78.581z"
			/>
		<path fill="#FFFFFF" d="M70.897,46.736H45.705c-0.904,0-1.633,0.73-1.633,1.633v5.792c0,0.901,0.729,1.634,1.633,1.634h25.193
			c0.903,0,1.636-0.732,1.636-1.634v-5.792C72.533,47.465,71.801,46.736,70.897,46.736z M69.266,52.525H47.339v-2.521h21.926V52.525
			z"/>
		<path fill="#FFFFFF" d="M72.056,38.4c-0.64-0.639-1.673-0.639-2.311,0l-0.812,0.809L68.127,38.4c-0.643-0.639-1.672-0.639-2.312,0
			c-0.642,0.639-0.642,1.671,0,2.31l0.808,0.81l-0.808,0.811c-0.642,0.638-0.642,1.672,0,2.31c0.315,0.319,0.735,0.478,1.156,0.478
			c0.417,0,0.835-0.159,1.155-0.478l0.806-0.811l0.812,0.811c0.318,0.319,0.737,0.478,1.152,0.478c0.421,0,0.837-0.159,1.158-0.478
			c0.636-0.638,0.636-1.672,0-2.31l-0.813-0.811l0.813-0.81C72.691,40.071,72.691,39.036,72.056,38.4z"/>
		<path fill="#FFFFFF" d="M89.139,29.322v-5.794c0-0.901-0.726-1.633-1.633-1.633H62.309c-0.903,0-1.632,0.732-1.632,1.633v5.794
			c0,0.901,0.729,1.633,1.632,1.633h25.197C88.413,30.956,89.139,30.226,89.139,29.322z M85.87,27.688H63.943v-2.526H85.87V27.688z"
			/>
		<path fill="#FFFFFF" d="M58.302,21.895H33.107c-0.904,0-1.635,0.732-1.635,1.633v5.794c0,0.901,0.73,1.633,1.635,1.633h25.195
			c0.905,0,1.634-0.732,1.634-1.633v-5.794C59.936,22.627,59.207,21.895,58.302,21.895z M56.666,27.688H34.74v-2.526h21.926V27.688z
			"/>
		<path fill="#FFFFFF" d="M82.423,19.798c0.314,0.32,0.732,0.479,1.153,0.479c0.419,0,0.836-0.159,1.152-0.479l0.811-0.81
			l0.812,0.81c0.317,0.32,0.736,0.479,1.155,0.479c0.416,0,0.838-0.159,1.154-0.479c0.641-0.638,0.641-1.672,0-2.31l-0.811-0.809
			l0.811-0.811c0.641-0.638,0.641-1.672,0-2.311c-0.639-0.639-1.67-0.639-2.31,0l-0.812,0.81l-0.811-0.81
			c-0.638-0.639-1.669-0.639-2.306,0c-0.642,0.638-0.642,1.672,0,2.311l0.807,0.811l-0.807,0.809
			C81.781,18.126,81.781,19.162,82.423,19.798z"/>
	</g>
</g>
</svg>
